<?xml version="1.0" encoding="UTF-8" standalone="no" ?>
<!DOCTYPE svg PUBLIC "-//W3C//DTD SVG 1.1//EN" "http://www.w3.org/Graphics/SVG/1.1/DTD/svg11.dtd">
<svg xmlns="http://www.w3.org/2000/svg" xmlns:xlink="http://www.w3.org/1999/xlink" version="1.1" width="1280" height="1024" viewBox="0 0 1280 1024" xml:space="preserve">
<desc>Created with Fabric.js 5.3.0</desc>
<defs>
</defs>
<g transform="matrix(1 0 0 1 640 512)" id="background-logo"  >
<rect style="stroke: none; stroke-width: 0; stroke-dasharray: none; stroke-linecap: butt; stroke-dashoffset: 0; stroke-linejoin: miter; stroke-miterlimit: 4; fill: rgb(255,255,255); fill-opacity: 0; fill-rule: nonzero; opacity: 1;"  paint-order="stroke"  x="-640" y="-512" rx="0" ry="0" width="1280" height="1024" />
</g>
<g transform="matrix(1.9211538461538462 0 0 1.9211538461538462 640 411.04859101364536)" id="logo-logo"  >
<g style=""  paint-order="stroke"   >
		<g transform="matrix(0.9852420048470403 0 0 0.9852420048470404 0 0)"  >
<g style=""  paint-order="stroke"   >
		<g transform="matrix(1 0 0 1 0 0)"  >
<path style="stroke: none; stroke-width: 1; stroke-dasharray: none; stroke-linecap: butt; stroke-dashoffset: 0; stroke-linejoin: miter; stroke-miterlimit: 4; fill: rgb(238,203,140); fill-rule: nonzero; opacity: 1;"  paint-order="stroke"  transform=" translate(-95, -100)" d="M 190 94 L 95 0 L 0 94 L 6.11 100 L 0 106 L 95 200 L 190 106 L 183.89 100 Z M 2.83 94 L 95 2.8 L 187.17 94 L 182.48 98.64 L 95 12.09 L 7.52 98.6 Z M 181.06 100 L 95 185.12 L 8.94 100 L 95 14.88 Z M 187.17000000000002 106 L 95 197.2 L 2.83 106 L 7.5200000000000005 101.36 L 95 187.91 L 182.48000000000002 101.39999999999999 Z" stroke-linecap="round" />
</g>
</g>
</g>
</g>
</g>
<g transform="matrix(1.9211538461538462 0 0 1.9211538461538462 640 404.91715166749157)" id="tagline-1e6586f8-d0fe-40a7-88e9-d3bbc2eb41fd-logo"  >
<g style=""  paint-order="stroke"   >
		<g transform="matrix(1 0 0 1 0 0)" id="tagline-1e6586f8-d0fe-40a7-88e9-d3bbc2eb41fd-logo-path-0"  >
<path style="stroke: none; stroke-width: 0; stroke-dasharray: none; stroke-linecap: butt; stroke-dashoffset: 0; stroke-linejoin: miter; stroke-miterlimit: 4; fill: rgb(238,203,140); fill-rule: nonzero; opacity: 1;"  paint-order="stroke"  transform=" translate(-43.165, 31.15)" d="M 6.67 -59.18 L 6.67 -3.11 C 6.67 -1.96 5.61 -1.07 3.56 -0.44 L 3.56 0 L 25.81 0 L 25.81 -0.44 C 23.76 -1.07 22.7 -1.96 22.7 -3.11 L 22.7 -59.18 C 22.7 -60.34 23.76 -61.23 25.81 -61.85 L 25.81 -62.3 L 3.56 -62.3 L 3.56 -61.85 C 5.61 -61.23 6.67 -60.34 6.67 -59.18 Z M 48.06 0 L 67.19 0 L 65.86 -5.52 L 78.94 -59.27 C 79.21 -60.43 80.72 -61.23 82.77 -61.85 L 82.77 -62.3 L 74.76 -62.3 L 74.76 -61.85 C 76.81 -61.23 77.43 -60.43 77.16 -59.27 L 64.97 -9.17 L 52.78 -59.27 C 52.51 -60.43 53.13 -61.23 55.18 -61.85 L 55.18 -62.3 L 32.93 -62.3 L 32.93 -61.85 C 34.98 -61.23 36.49 -60.43 36.76 -59.27 L 50.46 -3.03 C 50.73 -1.87 50.11 -1.07 48.06 -0.44 Z" stroke-linecap="round" />
</g>
</g>
</g>
</svg>